<?xml version="1.0" encoding="iso-8859-1"?>
<!-- Generator: Adobe Illustrator 19.0.0, SVG Export Plug-In . SVG Version: 6.00 Build 0)  -->
<svg version="1.1" id="Capa_1" xmlns="http://www.w3.org/2000/svg" xmlns:xlink="http://www.w3.org/1999/xlink" x="0px" y="0px"
	 viewBox="0 0 500.288 500.288" style="enable-background:new 0 0 500.288 500.288;" xml:space="preserve">
<path style="fill:#87E680;" d="M391.705,113.888l-5.25,6.99c-4.37,1.95-12.87,4.02-21.02,5.75l-23.22-23.21l0.32-0.32
	c11.675-11.67,30.6-11.666,42.269,0.009C387.856,106.161,390.21,109.839,391.705,113.888z"/>
<path style="fill:#FEDB41;" d="M391.705,113.888c-5.716-15.486-22.903-23.406-38.389-17.691c-4.05,1.495-7.728,3.849-10.781,6.901
	l-0.32,0.32l-6.34-6.34l-53.08-53.08c45.32-45.32,118.799-45.32,164.12,0s45.32,118.8,0,164.12l0,0l-62.44-62.44l0.32-0.32
	C393.049,137.12,395.748,124.827,391.705,113.888L391.705,113.888z"/>
<g>
	<path style="fill:#00EFD1;" d="M149.945,93.068l25.43,43.97c-64.96-2.12-115.59-9.11-128.96-17.9l-3.48-4.64
		C42.935,104.848,87.095,96.578,149.945,93.068z"/>
	<path style="fill:#00EFD1;" d="M342.215,103.418l23.22,23.21c-0.61,0.13-1.21,0.26-1.81,0.38c-30.95,6.44-85.05,10.7-146.62,10.7
		c-14.35,0-28.29-0.23-41.63-0.67l-25.43-43.97c20.64-1.14,43.29-1.78,67.06-1.78c44.28,0,88.11,2.2,118.83,5.83l0.04-0.04
		L342.215,103.418z"/>
</g>
<g>
	<path style="fill:#00CEB4;" d="M175.375,137.038l47.88,82.82c-12.09,5.5-19.2,13.87-40.84,13.87c-32.21,0-31.05-18.56-63.26-18.56
		l-0.46,0.35l-72.28-96.38C59.785,127.928,110.415,134.918,175.375,137.038L175.375,137.038z"/>
	<path style="fill:#00CEB4;" d="M374.975,136.178l-72.95,97.17l-0.08-0.06c-24.31-2.84-25.86-18.12-55.09-18.12
		c-10.58,0-17.69,2-23.6,4.69l-47.88-82.82c13.34,0.44,27.28,0.67,41.63,0.67c61.57,0,115.67-4.26,146.62-10.7
		c0.6-0.12,1.2-0.25,1.81-0.38c8.15-1.73,16.65-3.8,21.02-5.75L374.975,136.178z"/>
</g>
<g>
	<path style="fill:#00ACEA;" d="M302.025,233.348l-40.08,53.39l-0.03-0.02l-38.66-66.86c5.91-2.69,13.02-4.69,23.6-4.69
		c29.23,0,30.78,15.28,55.09,18.12L302.025,233.348z"/>
	<path style="fill:#00ACEA;" d="M261.945,286.738l-44.94,59.86l-98.31-131.08l0.46-0.35c32.21,0,31.05,18.56,63.26,18.56
		c21.64,0,28.75-8.37,40.84-13.87l38.66,66.86L261.945,286.738z"/>
</g>
<g>
	<path style="fill:#083863;" d="M364.855,0c-33.451-0.091-65.547,13.207-89.132,36.928c-3.904,3.905-3.904,10.236,0,14.141
		l33.487,33.483c-27.451-2.081-60.087-3.264-92.205-3.264c-21.091,0-41.727,0.5-61.462,1.479l-21.92-37.7
		c-1.813-3.038-5.121-4.864-8.658-4.779h-7.285l-9.186-9.319c-3.868-3.892-10.151-3.94-14.078-0.107l-5.071,4.971l-5.071-5.052
		c-3.893-3.865-10.173-3.872-14.075-0.016l-5.081,5.023l-5.073-4.815c-1.895-1.797-4.429-2.763-7.04-2.685h-33.62
		c-5.523,0-10,4.477-10,10s4.477,10,10,10H48.89l9.186,8.888c3.925,3.833,10.205,3.789,14.075-0.1l5.081-5.088l5.074,5
		c3.902,3.859,10.184,3.853,14.078-0.014l5.071-5.031l5.071,5.237c1.852,1.914,4.377,3.029,7.039,3.108h5.631l14.028,24.048
		c-24.816,1.8-46.134,4.267-62.28,7.439c-19.741,3.879-38.009,9.275-38.009,22.777c0,3.219,1.234,7.73,6.438,11.8l167.772,223.579
		v130.357h-59.63c-5.523,0-10,4.477-10,10s4.477,10,10,10h138.99c5.523,0,10-4.477,10-10s-4.477-10-10-10h-59.36V349.934
		l148.974-198.539l63.759,63.793c3.889,3.898,10.201,3.906,14.1,0.017c0.006-0.006,0.012-0.012,0.017-0.017
		c49.223-49.238,49.211-129.056-0.027-178.279C430.331,13.28,398.277,0.004,364.855,0L364.855,0z M297.745,222.395
		c-5.633-1.393-9.56-3.739-14.244-6.549c-8.343-5-17.8-10.678-36.644-10.678c-6.457-0.071-12.892,0.754-19.122,2.453l-34.772-60.14
		c7.927,0.146,15.957,0.227,24.044,0.227c57.744,0,111.174-3.747,144.358-10.059L297.745,222.395z M263.021,268.65l-24.791-42.877
		c2.856-0.417,5.74-0.619,8.627-0.605c13.306,0,19.064,3.454,26.355,7.828c3.791,2.391,7.764,4.48,11.882,6.25L263.021,268.65z
		 M217.01,329.937l-73.733-98.315c0.782,0.457,1.57,0.926,2.378,1.409c8.387,5.014,17.894,10.7,36.761,10.7
		c18.645,0,28.429-5.554,37.019-10.5l30.533,52.809L217.01,329.937z M209.424,215.911c-7.6,4.378-13.7,7.817-27.008,7.817
		c-13.344,0-19.15-3.47-26.5-7.863c-7.71-4.61-16.388-9.771-32.39-10.577l-50.7-67.6c31.671,6,75.256,8.329,96.658,9.148
		L209.424,215.911z M368.632,115.681l-10.534-10.532c8.116-2.427,16.874,0.614,21.739,7.549c-2.161,0.714-5.647,1.704-11.207,2.983
		L368.632,115.681z M217.005,101.288c41.6,0,83.977,2,114.326,5.38l13.488,13.487c-32.186,4.783-78.261,7.553-127.814,7.553
		c-12.117,0-24.107-0.177-35.769-0.506l-14.412-24.927C183.073,101.62,199.885,101.288,217.005,101.288L217.005,101.288z
		 M144.379,103.414l13.243,22.9c-52.1-2.5-82-7.674-96.32-11.838C73.682,110.888,98.821,106.229,144.379,103.414z M446.587,193.649
		l-48.81-48.811c6.259-10.366,7.48-23.01,3.32-34.382c-1.982-5.428-5.133-10.354-9.23-14.429
		c-12.985-12.947-33.115-15.392-48.822-5.931l-45.782-45.772c45.145-37.325,112-30.985,149.324,14.16
		C479.014,97.705,479.013,154.429,446.587,193.649L446.587,193.649z"/>
	<path style="fill:#083863;" d="M420.136,84.909l14.74-14.74c3.888-3.922,3.86-10.254-0.062-14.142
		c-3.898-3.864-10.182-3.864-14.08,0l-14.74,14.74c-3.922,3.888-3.95,10.22-0.062,14.142s10.22,3.95,14.142,0.062
		C420.094,84.951,420.115,84.93,420.136,84.909z"/>
	<path style="fill:#083863;" d="M427.186,134.277c-3.942-3.868-10.274-3.807-14.141,0.135c-3.816,3.889-3.816,10.118,0,14.007
		l14.741,14.74c3.888,3.922,10.22,3.95,14.142,0.062c3.922-3.888,3.95-10.22,0.062-14.142c-0.021-0.021-0.041-0.042-0.062-0.062
		L427.186,134.277z"/>
	<path style="fill:#083863;" d="M341.896,48.988c-3.905-3.905-10.237-3.906-14.143-0.001c-3.905,3.905-3.906,10.237,0,14.143
		l14.741,14.74c3.905,3.905,10.237,3.905,14.142,0c3.905-3.905,3.905-10.237,0-14.143l0,0L341.896,48.988z"/>
	<path style="fill:#083863;" d="M421.861,112.064c-0.583,5.492,3.396,10.417,8.888,11c0,0,0,0,0.001,0l19.9,2.11
		c0.354,0.038,0.711,0.057,1.067,0.057c5.523-0.013,9.989-4.501,9.976-10.024c-0.012-5.101-3.862-9.375-8.934-9.919l-19.9-2.11
		C427.368,102.596,422.445,106.574,421.861,112.064z"/>
	<path style="fill:#083863;" d="M385.621,39.488c-0.627-5.488-5.583-9.428-11.071-8.801c-5.487,0.627-9.428,5.584-8.801,11.071l0,0
		l2.111,18.48c0.576,5.047,4.844,8.86,9.923,8.866c0.383,0,0.766-0.022,1.147-0.065c5.487-0.627,9.427-5.584,8.8-11.071c0,0,0,0,0,0
		L385.621,39.488z"/>
</g>
<g>
</g>
<g>
</g>
<g>
</g>
<g>
</g>
<g>
</g>
<g>
</g>
<g>
</g>
<g>
</g>
<g>
</g>
<g>
</g>
<g>
</g>
<g>
</g>
<g>
</g>
<g>
</g>
<g>
</g>
</svg>
